<?xml version="1.0" standalone="no"?>
<!DOCTYPE svg PUBLIC "-//W3C//DTD SVG 20010904//EN"
 "http://www.w3.org/TR/2001/REC-SVG-20010904/DTD/svg10.dtd">
<svg version="1.0" xmlns="http://www.w3.org/2000/svg"
 width="300.000000pt" height="170.000000pt" viewBox="0 0 300.000000 170.000000"
 preserveAspectRatio="xMidYMid meet">
<metadata>
Created by potrace 1.10, written by Peter Selinger 2001-2011
</metadata>
<g transform="translate(0.000000,170.000000) scale(0.100000,-0.100000)"
fill="#000000" stroke="none">
<path d="M430 1034 c0 -171 -3 -333 -6 -360 l-7 -49 77 75 76 74 0 164 0 163
92 -3 91 -3 -2 -80 -2 -80 155 155 155 154 111 -109 c61 -61 113 -112 116
-114 2 -2 4 68 4 157 l0 162 -430 2 -430 3 0 -311z m802 268 c16 -4 18 -16 18
-93 0 -49 -4 -89 -8 -89 -4 0 -32 25 -62 56 -77 77 -113 98 -142 83 -13 -6
-68 -56 -124 -110 -56 -55 -106 -99 -113 -99 -6 0 -11 8 -11 18 0 30 -45 65
-82 64 -178 -1 -176 1 -177 -248 -1 -85 -3 -93 -28 -118 -14 -14 -28 -24 -31
-22 -8 8 -8 525 0 547 8 20 12 20 375 18 201 -1 375 -4 385 -7z"/>
<path d="M1578 1039 c-29 -17 -22 -56 13 -74 38 -20 32 -41 -11 -37 -28 2 -31
0 -20 -13 17 -21 53 -19 75 5 21 23 14 46 -20 62 -34 15 -34 42 0 36 28 -6 36
16 9 26 -21 8 -26 7 -46 -5z"/>
<path d="M1707 1043 c-4 -3 -7 -30 -7 -58 0 -57 19 -85 58 -85 41 0 63 35 60
92 -4 73 -28 77 -28 5 0 -58 -15 -82 -44 -71 -12 5 -16 20 -16 65 0 55 -7 69
-23 52z"/>
<path d="M2009 1040 c-8 -5 -21 -27 -29 -50 -7 -22 -16 -40 -20 -40 -4 0 -13
20 -20 45 -10 37 -17 45 -36 45 -23 0 -24 -3 -24 -71 0 -52 3 -70 13 -66 8 2
11 21 8 58 -4 62 7 59 30 -9 9 -26 22 -47 29 -47 7 0 21 24 31 54 26 74 31 76
28 7 -2 -40 1 -61 9 -64 9 -3 12 18 12 72 0 77 -3 83 -31 66z"/>
<path d="M2238 1043 c-10 -3 -24 -25 -34 -56 l-17 -52 -17 50 c-12 37 -22 51
-38 53 -20 3 -22 -1 -23 -52 -1 -31 -2 -61 -3 -68 -1 -6 4 -13 11 -15 8 -3 13
14 15 54 l3 58 20 -54 c11 -30 25 -56 30 -58 6 -2 19 22 30 52 10 30 21 55 25
55 4 0 5 -25 2 -55 -4 -46 -2 -55 12 -55 13 0 16 12 16 69 0 72 -3 80 -32 74z"/>
<path d="M2337 1043 c-4 -3 -7 -37 -7 -75 0 -54 3 -68 15 -68 12 0 15 15 15
75 0 69 -6 86 -23 68z"/>
<path d="M2443 1043 c-36 -5 -46 -23 -13 -23 18 0 20 -7 20 -61 0 -44 3 -60
13 -56 8 3 11 21 9 60 -4 56 -3 57 23 57 17 0 25 5 23 13 -5 13 -26 16 -75 10z"/>
<path d="M880 847 c-96 -94 -221 -216 -278 -271 -56 -54 -102 -99 -102 -100 0
0 178 -1 395 -1 l395 0 0 155 0 155 -117 117 -118 118 -175 -173z m293 4 l77
-76 0 -127 c0 -71 -3 -128 -7 -129 -47 -7 -610 -6 -622 0 -13 8 -2 23 59 82
41 39 141 137 223 217 l147 145 23 -19 c12 -10 57 -52 100 -93z"/>
<path d="M961 747 c-16 -18 -20 -36 -20 -92 0 -104 10 -115 109 -115 99 0 109
10 109 116 0 97 -13 111 -107 112 -59 0 -73 -3 -91 -21z m79 -47 c0 -36 -1
-38 -32 -36 -26 1 -34 6 -36 24 -5 37 4 49 37 49 29 0 31 -3 31 -37z m90 5 c0
-19 -3 -35 -7 -36 -5 0 -20 -2 -35 -4 -26 -3 -28 -1 -28 33 0 35 2 37 35 39
34 3 35 2 35 -32z m-90 -101 c0 -32 -2 -34 -35 -34 -33 0 -35 2 -35 33 0 42 3
45 40 39 27 -4 30 -8 30 -38z m90 1 c0 -33 -2 -35 -35 -35 -33 0 -35 2 -35 35
0 33 2 35 35 35 33 0 35 -2 35 -35z"/>
<path d="M1490 790 c0 -56 3 -70 15 -70 9 0 15 9 15 25 0 17 5 25 18 25 24 0
42 19 42 45 0 30 -19 45 -57 45 l-33 0 0 -70z m64 34 c8 -20 -1 -34 -20 -34
-8 0 -14 10 -14 25 0 28 24 34 34 9z"/>
<path d="M1610 791 c0 -55 3 -71 14 -71 10 0 14 9 13 26 -3 38 18 40 33 4 7
-16 19 -30 26 -30 18 0 18 10 -1 37 -13 19 -13 26 -3 43 19 29 -1 54 -46 58
l-36 3 0 -70z m63 35 c7 -17 -18 -40 -33 -31 -5 3 -10 15 -10 26 0 23 35 27
43 5z"/>
<path d="M1746 844 c-25 -24 -31 -64 -15 -93 18 -32 77 -41 103 -16 22 23 21
87 -2 108 -23 21 -66 22 -86 1z m69 -54 c0 -40 -3 -45 -24 -48 -27 -4 -41 12
-41 49 0 31 18 51 45 47 17 -3 20 -11 20 -48z"/>
<path d="M1880 790 c0 -56 3 -70 15 -70 9 0 15 9 15 25 0 17 5 25 18 25 24 0
42 19 42 45 0 30 -19 45 -57 45 l-33 0 0 -70z m64 34 c8 -20 -1 -34 -20 -34
-8 0 -14 10 -14 25 0 28 24 34 34 9z"/>
<path d="M2000 790 l0 -70 40 0 c22 0 40 5 40 10 0 6 -13 10 -30 10 -23 0 -30
4 -30 20 0 15 7 20 25 20 14 0 25 5 25 10 0 6 -11 10 -25 10 -18 0 -25 5 -25
20 0 16 7 20 30 20 17 0 30 5 30 10 0 6 -18 10 -40 10 l-40 0 0 -70z"/>
<path d="M2108 791 c-2 -52 0 -71 10 -71 7 0 12 13 12 30 0 17 4 30 10 30 5 0
16 -13 25 -30 9 -16 22 -30 31 -30 13 0 13 4 -1 30 -13 24 -13 33 -3 50 19 29
-1 54 -45 58 l-35 3 -4 -70z m57 24 c0 -11 -8 -21 -17 -23 -14 -3 -18 3 -18
23 0 20 4 26 18 23 9 -2 17 -12 17 -23z"/>
<path d="M2210 850 c0 -5 9 -10 20 -10 18 0 20 -7 20 -60 0 -47 3 -60 15 -60
12 0 15 13 15 60 0 53 2 60 20 60 11 0 20 5 20 10 0 6 -25 10 -55 10 -30 0
-55 -4 -55 -10z"/>
<path d="M2340 791 c0 -50 4 -71 13 -71 8 0 12 19 11 67 -3 94 -24 97 -24 4z"/>
<path d="M2400 790 l0 -70 40 0 c22 0 40 5 40 10 0 6 -13 10 -30 10 -23 0 -30
4 -30 20 0 15 7 20 25 20 14 0 25 5 25 10 0 6 -11 10 -25 10 -18 0 -25 5 -25
20 0 16 7 20 30 20 17 0 30 5 30 10 0 6 -18 10 -40 10 l-40 0 0 -70z"/>
<path d="M2512 848 c-21 -21 -13 -48 18 -66 35 -20 34 -37 -3 -37 -16 1 -27
-5 -27 -12 0 -22 68 -16 80 6 13 26 6 43 -31 63 -35 20 -29 43 8 33 18 -4 24
-2 21 7 -6 18 -50 22 -66 6z"/>
</g>
</svg>
